# xmcd
#
# Track frame offsets:
#	150
#	11947
#	29097
#	38357
#	54295
#	70960
#	89767
#	103150
#	117287
#	130050
#	144682
#	158910
#	172460
#	192105
#	207035
#	223660
#	237282
#	258075
#	269215
#	287052
#
# Disc length: 3992 seconds
#
# Revision: 1
# Processed by: cddbd v1.5PL3 Copyright (c) Steve Scherf et al.
# Submitted via: CDex 1.50Beta5
#
DISCID=380f9614
DTITLE=島田祐子 - こころの歌100曲集 第5集 さくら貝の歌
DYEAR=1900
DGENRE=
TTITLE0=さくら貝の歌
TTITLE1=あざみの歌
TTITLE2=春の唄
TTITLE3=白い花が咲く頃
TTITLE4=カチューシャの唄
TTITLE5=ゴンドラの唄
TTITLE6=花の街
TTITLE7=出船
TTITLE8=夢路より
TTITLE9=歌のつばさに
TTITLE10=夜明けのうた
TTITLE11=遠くへ行きたい
TTITLE12=琵琶湖周航の歌
TTITLE13=心の窓にともし灯を
TTITLE14=誰もいない海
TTITLE15=この広い野原いっぱい
TTITLE16=シクラメンのかほり
TTITLE17=今日の日はさようなら
TTITLE18=あおげば尊し
TTITLE19=蛍の光
EXTD=
EXTT0=
EXTT1=
EXTT2=
EXTT3=
EXTT4=
EXTT5=
EXTT6=
EXTT7=
EXTT8=
EXTT9=
EXTT10=
EXTT11=
EXTT12=
EXTT13=
EXTT14=
EXTT15=
EXTT16=
EXTT17=
EXTT18=
EXTT19=
PLAYORDER=
